<svg xmlns="http://www.w3.org/2000/svg" xmlns:xlink="http://www.w3.org/1999/xlink" viewBox="0 0 2340.33 1245.91" preserveAspectRatio="none" height="80%">
                  <defs>
                    <linearGradient id="grad2" x1="-.33" x2="2340" y1="1027.53" y2="1027.53" gradientUnits="userSpaceOnUse">
                      <stop offset="0" stop-color="#ed3f21"/>
                      <stop offset="1" stop-color="#dc2c73"/>
                    </linearGradient>
                  </defs>
                  <path fill="url(#grad2)" d="M-.33 959.35v-3.41c168.27-11.33 363.11-15.44 497.42 65.39 71.79 43.21 102.87 105.86 169.71 150.95 25.56 17.25 56.53 28.9 92.83 32.34 69.8 6.62 121.1-29 163.91-61.07 143.72-107.71 243.73-239.15 372.24-354.6 54.87-49.28 202.4-189.79 307.85-110.16 70.67 53.36 84.47 143.73 98.4 210.52 9 43 15.81 86 28.55 128.66 24.78 83 67.45 165.54 146.55 232.78 114.41 97.23 283.4 137.09 462.87 148.62v3.63c-180-11.58-349.69-51.43-464.65-148.83-79.63-67.47-122.54-150.45-147.15-233.82-12.72-43.1-19.3-86.6-27.92-130.09-13.41-67.64-26.26-159-96.58-213.55-104.58-81.15-252.78 60.76-307.17 109.92-128.72 116.34-228.63 248.57-372 357.52-42.35 32.18-93 68.17-162.71 61.87-36.13-3.27-66.87-14.7-92.22-31.91-66.35-45.07-96.45-107.67-168.13-150.7-135.31-81.27-332.89-75.87-501.8-64.06z" transform="translate(.33 -157.05)"/>
                  <path fill="url(#grad2)" d="M-.33 941.76v-2.66c166.36-8.9 347.91-6 477.42 74 71.93 44.44 108.66 108.43 181.09 151.83a225.94 225.94 0 0 0 101.65 31.44c62.33 3.79 111.42-25.77 152.28-53.66 147.94-101 248.15-230.66 375.74-342.52 57.88-50.74 203.61-185.78 312.46-108.81 73.23 51.78 89.53 140.5 106.66 206.86 9.56 37 19.09 74.12 31.89 110.75 26.77 76.61 67.81 152.6 140 215.7 112.92 98.63 280.78 139.5 461.1 150.91v4.58c-180.52-11.47-348.75-52.39-461.71-151.21-72.43-63.37-113.37-139.76-139.6-216.75-12.62-37.06-21.68-74.55-30.87-112-16.48-67.26-32.29-157.15-105.31-210.11-108.32-78.57-255 57.62-312.83 108.42-128.15 112.66-228.55 243.16-376.64 345.33-40.56 28-89.29 57.9-151.61 54.29a221.06 221.06 0 0 1-101-31.2c-71.89-43.51-107.51-107.65-179.21-152.06C351 934.21 166.76 932.45-.33 941.76z" transform="translate(.33 -157.05)"/>
                  <path fill="url(#grad2)" d="M-.33 928.18v-2c165.1-6.84 334.72 2.39 460.94 81.21 68.92 43 111.37 102.2 182.8 143.23 30.32 17.42 67.42 30.81 107.73 33.9 64 4.91 115.58-23.63 158.69-51.89 139.34-91.34 235.34-210.25 352.06-313.8 57.1-50.66 201.6-191 317-123.92 77.26 44.92 94.26 129.84 115.91 191.87 10.59 30.35 22.11 60.64 34.29 90.73 30.65 75.76 71.7 151 143.07 214.29 114.09 101.19 283.6 143.58 467.84 154.85v5.42c-182.76-11.24-351.45-53.07-465.16-153.22-71.52-63-112.69-138.14-142.54-213.87-11.46-29.09-22-58.43-32-87.78-22-64.84-36.7-148-110.21-198.26-110.36-75.51-253.89 56.35-313 107.82-125.45 109.17-224.86 238-375.34 333.34-43.09 27.32-92.8 52.46-155.14 46.08A252.72 252.72 0 0 1 642.2 1151c-69.62-41.85-111-100.6-179.81-143.35C335.77 929.05 164.49 921-.33 928.18z" transform="translate(.33 -157.05)"/>
                  <path fill="url(#grad2)" d="M-.33 917.92v-1.51c152.64-4.74 304.09 6.84 425.37 74.06 75.86 42 126 100.68 201.67 142.47 32.37 17.86 70.38 31.9 112.29 36.55 63.62 7 114.86-16.32 160-43.94 139.41-85.24 232.87-202.21 345.1-302.47 56.55-50.52 195.73-187.48 311.29-123.89 76.63 42.17 89.68 119 118.09 177.64 13.47 27.8 29 55.35 43.16 83 38.71 75.53 85.66 150.36 163.58 212 117.56 93 282.24 131.22 459.73 141.55v6.11c-175.84-10.34-339.4-48-456.16-140-77.84-61.34-124.7-136-162.16-211.59-13.92-28.07-28.56-56.19-41.47-84.47-27.25-59.69-41.13-133.85-112-179.76-111.06-71.94-249.77 56.75-308.5 108.12C1144.42 912.6 1050.74 1028.2 915 1117.92c-43.49 28.75-97.07 59.06-162.13 55.64-41.53-2.19-81.74-15.71-114.18-32.43-75.5-38.91-123.49-97.09-193.88-139.8C320.78 926 161.63 912.61-.33 917.92z" transform="translate(.33 -157.05)"/>
                  <path fill="url(#grad2)" d="M-.33 910.3v-1.12c147.66-3.29 288.33 11.94 406.63 74.43 77.78 41.06 135 97.56 215.66 136.13 35.25 16.85 76.65 30.46 120.19 34.06 64.36 5.32 116.52-19.09 161.75-47.23 133.51-83.06 222.48-195.56 330.62-292.48 52.27-46.85 168.87-162.8 278-119.81 80.41 31.66 92.18 104.77 124.64 156.22 16.66 26.4 37.44 51.85 54.49 78.23 47.36 73.25 97.17 146.29 177 206.78 122.74 93 290 131.39 471.28 141.33v6.63c-180.77-10-347.68-48.51-469.42-141.7-79.42-60.8-128.56-134.22-174.33-208-16.57-26.71-36.41-52.67-52.51-79.44-31.7-52.7-44-126.67-124.49-159.69C1410 649.85 1291.1 767.1 1238.55 814c-109.55 97.66-199.42 211-333.95 295.07-45.21 28.24-97.54 53.14-162.11 47.76-43.33-3.62-84.39-17.34-119.21-34.35-80-39.08-136-96.13-213.35-137.47C291 921.48 148.46 906.77-.33 910.3z" transform="translate(.33 -157.05)"/>
                  <path fill="url(#grad2)" d="M-.33 904.63v-.84c143.28-2.1 274.8 16.45 391.06 74.31 80.61 40.12 145.71 94.21 232.61 128.7 33.67 13.36 71 23.85 109.95 27.87 63.58 6.58 114.18-12.36 160.89-39.92 131-77.29 215.06-187.59 316-281.28 49.48-45.93 158.79-160 266-121.22 77.43 28 85.6 93.72 124.24 139.56 20.81 24.67 46.94 47.48 67.21 72.72 53.56 66.74 106.22 134 183.6 190.17 129.54 94.11 301.26 133.46 488.76 143.12v7c-186.85-9.74-358.06-49.12-486.39-143.47-76.85-56.5-128.72-124-180.68-191.25-19.7-25.49-44.88-48.86-65-73.88-37.91-47.05-46.44-113.9-124.17-143.09-107.77-40.47-219 74.39-269.14 120.61-102.48 94.46-187.67 205.67-319.81 283.89-46.8 27.67-97.6 47.08-161.41 40.37-38.72-4.07-75.76-14.69-109-28.22-86.23-35-150-89.84-230.11-130.3-116.85-58.99-250.11-77.14-394.61-74.85z" transform="translate(.33 -157.05)"/>
                  <path fill="url(#grad2)" d="M-.33 900.24v-.69c137.19-1.12 260.18 19.78 373.87 71.66 78.8 36 147.46 82 231.26 113.08 90.21 33.44 185.92 46.37 272.15.92 128.31-67.62 207.31-175.64 297.18-264.46 46.91-46.37 143-158.88 250.4-136.43 22.19 4.65 40.42 16 55.11 27.49a230.4 230.4 0 0 1 36.24 36.91 404.83 404.83 0 0 1 35.87 54c24.53 22.91 56.91 42.11 81 66 63.92 63.62 120.54 129.9 201.24 185.22 137.14 94 312.93 133.89 506.06 143.25v7.2c-192.37-9.42-367.58-49.31-503.39-143.55-80.07-55.56-135.85-122.05-198-186.27-23.38-24.15-54.71-44-78.61-67.21a413.44 413.44 0 0 0-35.76-55.4 235.13 235.13 0 0 0-36.29-38c-14.68-11.83-33-23.65-55.42-28.63-108.17-24-206.31 89.38-253.89 136C1087.12 911 1007 1020 877.34 1088.48c-86.34 45.64-181.52 33.22-271.54-1.07-83.12-31.67-150.61-78.41-228.8-114.76C262.67 919.57 138.17 899-.33 900.24z" transform="translate(.33 -157.05)"/>
                  <path fill="url(#grad2)" d="M-.33 896.44v-.66c130.63-.26 246.33 22.42 357.19 68.06 82.73 34 158.6 76.24 247.28 103.57 94.69 29.18 192.79 41.52 278.73-5.86 120-66.15 191.66-169.1 274.6-254.79 43.07-44.49 129.89-150.08 232-127.42 59 13.07 77.71 56.87 108.7 87.36 24.84 24.45 68 42 96.83 65.28 74.2 60 136 125.82 220.27 180.29 145.21 93.92 325.4 134.65 524.7 143.83v7.24c-198.46-9.22-378-49.89-521.9-144C1734.5 964.6 1674 898.56 1601.18 838c-28.25-23.51-70.38-41.88-94.52-66.61C1476 740 1457.19 695 1397.72 680.87c-102.89-24.41-191.79 82-235.55 126.71-84.67 86.5-157.6 190.42-278.91 257.42-86.13 47.6-183.61 35.76-278.27 5.72-88-27.93-162.72-70.89-244.78-105.36C248.67 918.51 131.68 896-.33 896.44z" transform="translate(.33 -157.05)"/>
                  <path fill="url(#grad2)" d="M-.33 892.54v-.74c123.64.58 233.21 24.49 340.88 63.87 87.32 31.94 170.46 69.79 264 93.56 98 24.88 198.81 36.87 283.92-12.24 103.4-59.66 165.63-149.33 234.39-226.33 40.15-45 114.71-149 213.82-141.36 51.6 4 81 37.94 107.73 63.21 27.1 25.68 77.64 39.42 112.13 62.14 84.61 55.72 152 121.7 239.84 175.55 153.29 93.93 337.89 135.84 543.62 145v7.13c-204.9-9.19-388.88-51-540.89-145.1-87.23-54-153.53-120-236.51-176.49-33.93-23.09-83.49-37.55-109.9-63.62s-55.75-61.41-108-66.26c-100-9.28-176.72 95.85-217.41 140.86-70.34 77.79-133.77 168.32-238.4 228.84-85.35 49.37-185.42 37.89-283.55 12.17-92.87-24.33-174.87-63-261.45-95.39C235.45 916.79 124.76 893-.33 892.54z" transform="translate(.33 -157.05)"/>
                  <path fill="url(#grad2)" d="M-.33 887.87v-1c223.46 2.89 395 98.32 600.59 141.74 96.93 20.47 202.43 34.91 286.27-12.56 96.58-54.7 152.17-139.48 212.2-211.92 37.55-45.31 100-142.09 194-144.15 47.52-1 77.67 24.94 106.33 46 31.88 23.37 86.63 32.85 124.55 53.87 93.19 51.67 166.5 117.56 258 170.65 160.21 92.94 348 135.72 558.37 145v6.85c-209.61-9.26-396.83-51.86-555.9-144.95-90.91-53.2-163.19-119.08-254.93-171.46-37.27-21.28-91.49-31.5-122.41-55.3-28.26-21.75-58.28-49.17-106.53-49-94.94.37-159.44 98.5-197.39 143.67-61.53 73.25-118.26 158.89-216 214.47-84.05 47.79-188.67 33.73-285.82 12.52C394.59 987.27 225.49 890.41-.33 887.87z" transform="translate(.33 -157.05)"/>
                  <path fill="url(#grad2)" d="M-.33 881.74v-1.28c214.07 5.45 397.91 93.25 601.73 127.78 98.6 16.76 207.39 31.18 290.34-17.45C981.12 938.39 1029.91 858 1083.19 789c34.81-45.16 88.81-134.44 179.48-139.36 51-2.76 71.81 23.64 109.74 38.89 15.35 6.17 42.77 7.39 60 12.49 27.38 8.08 52.64 19.22 76.38 31.29 101.83 51.8 183.34 119.33 283.86 172.41 160.64 84.85 344.17 124 547.3 133.21v6.41c-202.49-9.11-385.61-48-545.45-132.95-100-53.11-180.63-120.59-281.22-173-23.37-12.17-48.24-23.47-75.26-31.76-16.83-5.17-44.26-6.7-59.08-13-37.91-16-57.67-43.93-109.61-42.19-91.46 3.07-147.27 93.78-182.39 138.65-54.62 69.91-104.48 151.13-194.89 204.44-83.13 49-191 34.91-289.85 17.56C397.75 976.22 215.48 886.67-.33 881.74z" transform="translate(.33 -157.05)"/>
                  <path fill="url(#grad2)" d="M-.33 873.46v-1.73c98.77 2.89 194.54 28.28 286.5 50.35 101.89 24.45 204 49.08 310.26 63.86 96.88 13.48 211.42 29.67 293.87-16.51 84-47.06 127.37-122.49 173.31-186.79 33.89-47.42 78.53-128.1 164.72-143.27 46.8-8.23 71.26 10.66 111.36 20.22 20.43 4.87 44.08 4.91 65.12 10 29.24 7 56.52 17.22 82.24 28.78 108.1 48.6 194.1 116.58 297.09 169.7 164.39 84.79 349.54 125.43 555.86 135.3v5.82c-205.84-9.74-390.76-50.08-554.62-134.85-102.62-53.08-187.9-121-295-170.1-25.4-11.64-52.35-22-81.28-29.2-20.63-5.15-44.35-5.32-64.29-10.4-40-10.18-63.11-30.86-111-23.49-87 13.41-133.08 95.64-167.07 142.61-47.13 65.13-91.37 141.44-176.26 189.45-82.48 46.65-196 30.71-293.15 16.72-105.55-15.2-206.72-40.57-307.77-65.45C196.7 901.59 99.85 875.91-.33 873.46z" transform="translate(.33 -157.05)"/>
                  <path fill="url(#grad2)" d="M-.33 862.35v-2.29c91 6.26 179.91 29.37 266.67 47.38 106.55 22.11 214 42.91 324.12 55.53 96.28 11 215.19 28.17 298.91-14.83 80-41.07 119.09-112.07 158.91-171.42C1082 726.5 1120.39 654.33 1202 629.93c41.37-12.38 73.43-3.93 114.71 1.73 57.44 7.88 104.89 13.34 156.42 34.3 112.89 45.91 202.18 114.59 306.62 168.1C1946 919.27 2131.53 961.79 2340 972.69v5.07c-208.19-10.69-393.71-52.85-559.86-138-104.28-53.41-193.09-121.95-305.25-168.3-51.2-21.15-98.22-26.19-155-35-41-6.39-71.74-16.7-114-5-82.37 22.89-121.63 96.48-155.31 146.2-40.73 60.15-80.49 132.12-161.12 174.16C806 995.41 688 978.48 591.6 967.06c-109.44-13-216-34.41-321.72-56.91C182.23 891.5 92 867.88-.33 862.35z" transform="translate(.33 -157.05)"/>
                  <path fill="url(#grad2)" d="M-.33 847.74v-3c196.05 29.26 383.47 75.41 583.48 94.7 96.19 9.27 220 27.35 305.83-12.21 77-35.46 113.53-100.65 149.16-155.58 34.28-52.84 70.16-117.93 147.32-149.85 83.35-34.48 203.51-16.25 283.41 13.94 116 43.84 207 113.5 311.51 167.76 166.09 86.19 350.34 131 559.62 143.36V951c-209.25-12-393.85-56.44-560.16-142.42-104.65-54.11-195.42-123.57-311-167.72-77.34-29.54-199-50.2-281.26-17.75-77.89 30.73-114 96.93-148.06 149.34-36.24 55.69-73.1 121.95-150.52 158.41-85.36 40.21-208.37 22.28-304.46 12.75-113.29-11.23-224.82-29.27-335.07-49.75-82.86-15.39-165.26-35.13-249.8-46.12z" transform="translate(.33 -157.05)"/>
                  <path fill="url(#grad2)" d="M-.33 829.33v-3.13c183 45.62 383.74 71.36 576.76 88.3 98 8.61 220.92 27.17 309.87-10.8 75.86-32.38 113.49-93 149.29-145.39 36.65-53.65 74.24-114.64 149.3-149.74 88.29-41.29 201.74-30.13 291.64 2.67 117.72 43 210.12 112.63 314.75 167.54 163 85.52 342.45 132.79 548.72 147.12v3.63c-207.41-14-388.22-60.9-551.94-147-104.39-54.91-196.27-124.87-313.74-167.87-89.28-32.68-203.39-43.58-291-2.49-75 35.18-112 96.6-148 150.43-35.13 52.55-72.09 113.58-148 146-88.55 37.8-212.52 19.23-310.09 10.59C383.18 902 184 874.25-.33 829.33z" transform="translate(.33 -157.05)"/>
                  <path fill="url(#grad2)" d="M-.33 813.69v-2.23C73.15 830.81 153.88 840.57 231 851q168.65 22.75 339.8 36.19c100.51 7.86 218 25.8 309.46-12 76.44-31.6 118.6-89 159.28-140.14 41.44-52.11 83.5-109.92 159.29-143.81 91.82-41.07 202-29.38 295.07 3.63 118.36 42 213 109.44 318.23 163.72C1969.92 839.94 2141.47 888.18 2340 904v4c-200-15.66-373-63.83-531.83-146-105.17-54.49-199.55-122.39-317.89-164.63-92.54-33-203.26-44.74-294.47-3.48-75.6 34.21-116.71 92.64-157.25 145.08-39.76 51.45-81 109.45-157.25 141.3-91 38-209.33 19.87-309.42 11.81q-171.31-13.8-340.43-37.68C154.08 843.52 73.53 833.1-.33 813.69z" transform="translate(.33 -157.05)"/>
                  <path fill="url(#grad2)" d="M-.33 802.77v-1.5c71.72 18.06 152.89 23.64 228.21 31 111.52 10.92 223.64 19.25 335.89 26.1 102.65 6.27 216.05 22.67 310.39-13.3 77.74-29.66 126.16-83 172.84-132 47.32-49.66 95.59-103.43 172.83-134.94 95.21-38.84 202.84-28 298.5 4.51 117.79 40 213.66 104.28 318.35 157C1988.27 816 2151 863.88 2340 880.32v4.29c-190.83-16.41-355.12-64.44-507.88-141.71-104.84-53-200.57-117.92-318.54-158.34-95.24-32.64-203.26-43.72-297.9-4.36-76.92 32-124 86.54-170.22 136.69-45.53 49.42-92.78 103.51-170.23 133.57-93.83 36.42-207.84 19.68-310.14 13.08-112.55-7.27-224.92-16.32-336.62-28.06-75.67-7.95-156.79-14.34-228.8-32.71z" transform="translate(.33 -157.05)"/>
                  <path fill="url(#grad2)" d="M-.33 795.7v-.91c70.56 15.38 151.23 16.16 224.56 20 110.37 5.71 221 9.62 331.48 13.71 104.34 3.87 215.2 18.15 312.4-14.62 79.78-26.89 135.4-75.44 189.23-121.34 54.33-46.34 109.8-95.34 189.22-123.66 98.27-35.06 204.14-26 301.88 5.3 116.24 37.22 212.48 97.53 315.78 147.85 144.5 70.39 297.55 116.87 475.78 133.14v4.52c-180.21-16.4-335-63.19-480.8-134.69-103.6-50.78-199.83-111.85-316.4-149.6-97.41-31.55-203.52-41-301.28-5.17-79 28.93-133.15 78.81-186.18 125.79-52.5 46.51-106.8 95.94-186.17 123.36-96.7 33.41-207.9 18.73-312 14.39-110.83-4.63-221.69-9.35-332.29-16C151.21 813.3 70.4 811.63-.33 795.7z" transform="translate(.33 -157.05)"/>
                  <path fill="url(#grad2)" d="M-.33 791.65v-.46c70.4 11.17 148.84 7.06 220.54 6.9 108.92-.25 217.83-1.32 326.75-.48 105.56.82 215.38 12.66 315.24-16 82.45-23.64 145.89-66.92 207.71-108.89 62.16-42.2 125.47-85.87 207.7-110.52 100.77-30.21 205.89-23.45 305.22 6 113.92 33.9 209.87 89.63 311.17 136.96 136.69 63.87 279.59 108.12 446 123.6v4.7c-168.53-15.65-313.24-60.35-451.36-125.39-101.69-47.9-197.73-104.47-312.1-138.93-99.09-29.84-204.26-37-304.64-5.91-81.7 25.32-143.6 70-204.34 112.94-60.36 42.72-122.4 87-204.33 111.19-99.41 29.4-209.32 17.12-314.7 15.73-109.19-1.45-218.39-1.28-327.59-2.13-72.04-.56-150.8 2.61-221.27-9.31z" transform="translate(.33 -157.05)"/>
                  <path fill="url(#grad2)" d="M-.33 789.78v-.16c70.2 6.46 146.44-3.17 216.35-7.57 107.12-6.73 214.3-13.14 321.85-15.92 106.38-2.75 216.43 6.74 318.63-17.33 85.73-20.19 157.25-57.8 227.5-95.11 70.49-37.37 141.93-75.29 227.55-96.08 102.47-24.87 208.15-20.42 308.52 6.75 111 30 206.24 80.7 305.22 124.61 128.34 56.95 260.8 98.38 414.67 112.6v4.82c-156.1-14.46-290.41-56.42-420.25-114.61-99.39-44.54-194.76-96.11-306.34-126.84-100.21-27.6-205.73-32.46-307.94-6.62-85 21.48-155 60.42-224 98.68-68.77 38.14-138.89 76.85-224 97.61-101.85 24.85-211.73 15-318 17.09-107.77 2.12-215.26 7.57-322.72 13.14-70.16 3.63-146.82 12.28-217.04 4.94z" transform="translate(.33 -157.05)"/>
                  <path fill="url(#grad2)" d="M-.33 789.25c70.26 1.09 143.72-14.05 212.16-22.84 105-13.49 210.45-25.47 316.95-32.11 107.17-6.68 217.8.72 322.33-18.71 89.58-16.65 169.22-48.6 248-80.57 174-70.63 355.68-122.83 559.75-73.44 107.83 26.1 202 71.37 298.56 111.59C2077 723 2199 761.23 2340 773.91v4.88c-143.25-13-267.09-51.78-388.24-102.87C1854.8 635 1760.41 588.8 1652 562c-204.44-50.52-383.7 3-555.57 76.27-77.32 32.94-155.53 65.88-244.4 83.16-104.1 20.24-214.65 12.5-321.67 18.46-106.65 6-212.44 17-317.8 29.24-68.68 8.01-142.65 22.19-212.89 20.12z" transform="translate(.33 -157.05)"/>
                  <path fill="url(#grad2)" d="M-.33 789.21c70.36-4.61 140.8-25.07 208.14-38.36C310.34 730.6 414.2 712.91 520 702.32c108.2-10.83 219-5 326.05-20.09 93.95-13.21 181.4-39.45 268.35-65.81 185-56.07 380.37-100.35 583.25-57.32 226.9 48.12 399.12 166 642.31 187v4.9c-130.31-11.32-243.81-46.8-356.07-90.79-94.6-37.07-187.91-77.81-293-100.66-203-44.12-395.93 1.57-579.17 60.15-85.55 27.36-171.66 54.59-264.81 68.4-106.57 15.8-217.41 9.76-325.4 19.85-105.93 9.89-210.07 26.58-313 45.63C141 766.06 70 785.61-.33 789.21z" transform="translate(.33 -157.05)"/>
                  <path fill="url(#grad2)" d="M-.33 788.83v-.17c70.38-10.2 138-35.76 204.5-53.54 99.91-26.71 202.25-50.07 307.83-64.6 109.54-15.09 219.69-10.37 329.54-21.47 98.6-10 193.43-30.6 287.85-51.36 194.08-42.67 402.44-78.6 605.82-41.53 212.24 38.69 382.24 144 604.79 162.34v4.83C2114 704.6 1943.52 597 1728.78 556.75c-203.12-38.08-409.41-.69-602 44.26-93.15 21.74-186.76 43.34-284.52 53.85-109.35 11.75-219.66 6.88-329 21.22-105.59 13.86-208.18 36.23-308.56 61.83C138.14 754.9 70.06 779.57-.33 788.83z" transform="translate(.33 -157.05)"/>
                  <path fill="url(#grad2)" d="M-.33 787.25v-.46c70.41-15.26 135.57-45.67 201.41-67.79 97.32-32.7 198.23-61.55 303.92-79.87C615.92 619.91 724.83 624 837.53 616.3c103.34-7 204.65-22.45 305.77-37.78 202.29-30.66 420.62-58.34 626.7-26.52 198.7 30.63 365.72 123.2 570 139.48v4.7c-207.26-16.56-374.87-111.38-575.83-143.32-205.5-32.65-422.3-3.53-623.21 29.11-100 16.25-200.26 32.57-302.78 40.09-112.21 8.22-221.35 4.07-332 22.59-105.65 17.67-206.8 45.58-304.56 77.27-65.99 21.33-131.55 50.91-201.95 65.33z" transform="translate(.33 -157.05)"/>
                  <path fill="url(#grad2)" d="M-.33 783.65v-.91c70.64-19.28 133.88-54.43 199-80.53 94.92-38 194.53-72 300.67-93.78 111.88-22.95 219.69-19.34 334.77-24.17 107.77-4.53 214.61-15.23 321.38-25.61 209.77-20.39 434.77-40.23 645.2-13 96.62 12.51 188 37 278.14 62.64 83.61 23.78 169.51 51 261.13 56.93v4.52c-93.48-5.93-180.85-33.73-265.84-58.41-90.23-26.2-181.56-51.46-278.47-64.4-209.59-28-433.65-6.83-642.16 15.24-105.86 11.2-211.8 22.69-318.83 27.62C720 595.12 612 591.43 500.25 613.77c-106 21.19-205.87 54.31-301.18 91.45C133.78 730.66 70.25 765-.33 783.65z" transform="translate(.33 -157.05)"/>
                  <path fill="url(#grad2)" d="M-.33 777.17v-1.5c71.36-21 133.7-61.93 197.59-91.19 92.88-42.53 191.39-81.11 298.25-105.8 112-25.88 219.5-22.74 336-25.48 111.54-2.63 222.73-9.27 333.92-15.39s222.39-11.72 333.92-12.29c107.81-.54 220-.74 326.59 11 95.64 10.56 187.46 31.14 277.9 53.9 76.4 19.23 154.29 43.47 236.18 49.85v4.29c-83.5-6.21-162.73-31-240.32-50.92-90.35-23.21-182-44.42-277.73-55.27-106.27-12-218.55-11.77-326.11-10.87-110.94.94-221.55 7.23-332 14s-221 14.12-332 17c-116.32 3-223.8-.19-335.86 25.25-106.71 24.22-205.4 62-298.59 103.84-64.5 29.03-126.59 68.02-197.74 89.58z" transform="translate(.33 -157.05)"/>
                  <path fill="url(#grad2)" d="M-.33 767v-2.23c72.47-21.59 134.55-67.54 197.23-99.19 91.33-46.11 189-88.53 296.8-115.42 111.05-27.69 219.45-25.2 335.91-26.74 114.28-1.52 228.47-4.93 342.69-7.68 221.21-5.34 452.19-13.63 671.9 8 95.9 9.44 189.26 27 281 47.63 70.49 15.89 141.17 37.07 214.85 45.51v4c-75-7.94-146.9-29.66-218.31-46-91.39-21-184.39-39-280.14-48.53-219-21.91-449.75-12.94-670.22-6.59-113.79 3.28-227.56 7.19-341.45 8.83-116.57 1.69-224.73-.95-336 26.52-107.62 26.57-205.42 68.38-297 113.94C134 700.3 71.92 745.35-.33 767z" transform="translate(.33 -157.05)"/>
                  <path fill="url(#grad2)" d="M-.33 752.24v-3.13C73.43 729.33 137 678 197.82 645.19c90.38-48.65 187.55-94 296.52-122.12s219.48-26.55 334.28-28q173.46-2.13 346.93-3c224.27-.84 456.11-6.85 678.63 14.35 169.33 16.13 323.32 56.73 485.82 88.92V599c-164-29.28-317-73-486.91-89.15-222.17-21.15-453.95-14.94-677.82-13.48-115.52.76-231 2.24-346.54 3.59-115.22 1.34-225.36-.39-334.69 27.75-108.75 28-206 72.89-296.48 121.17C136.31 681.57 73.22 731.92-.33 752.24z" transform="translate(.33 -157.05)"/>
                  <path fill="url(#grad2)" d="M-.33 732.62v-3.76c75.24-21.45 139.58-67.28 203.81-100 91-46.43 187.22-89.63 293.21-119.47 107.51-30.3 214.68-36.39 329.82-40.45q171.19-6.1 342.72-6.6c225.92-.72 458 .14 680.92 27 98.64 11.88 195.61 28.88 291.63 47.95 64.94 12.89 130.86 30.51 198.22 36.9v4c-67-8.7-132-26-197.21-39C2047 519.94 1950 503.31 1851.42 492c-222.84-25.63-454.9-24.9-680.44-24.42q-171.9.36-343.69 5.47c-114.94 3.44-223.07 7.78-330.74 37.55-106.86 29.51-203.29 73.4-294.17 120.62-63.44 32.93-127.6 80.36-202.71 101.4z" transform="translate(.33 -157.05)"/>
                  <path fill="url(#grad2)" d="M-.33 710.32v-4.14c74.85-22 141.09-59.07 208.53-89.36 91.44-41.09 185.8-79.59 286.29-110.11 206-62.54 439.24-67.24 662.71-69.93 229.16-2.76 461.11 6.38 685.45 39 98.69 14.35 195.71 32.91 293.23 50.33 62.61 11.19 138.29 30.1 204.12 22.56v4.78c-66.45 5.11-140.08-13.8-203.06-25.33C2039.69 510.32 1942.7 492 1844 478c-224-31.75-456-39.51-684.45-37.19-222.51 2.27-458.66 4.07-664.33 65.88C393.7 537.18 299 576.58 207.55 618.73c-67 30.9-132.85 69.5-207.88 91.59z" transform="translate(.33 -157.05)"/>
                  <path fill="url(#grad2)" d="M-.33 686v-4.45c168.86-47.12 322.64-118.66 488.2-171q72.3-22.86 146.25-43.27c54.1-14.87 115-20.23 172.51-26.75 110.91-12.57 223.09-20.21 335.5-23.07a3746 3746 0 0 1 692.53 47.23c98.58 15.93 196 35.11 295.07 49.74 62 9.15 149.7 26 210.27 4.91v5.4c-61.4 18.89-147.51 1.25-209.17-8.23-98.79-15.19-196.12-34.32-294.73-50-226.54-36.09-458.33-51.33-691.13-46-112.46 2.56-224.74 9.64-335.88 21.38-57.59 6.09-118.6 10.87-173 25.17q-74.43 19.58-146.79 42.45c-95.42 30-187.78 64.05-279 99.37C141.4 635.51 73.23 665.21-.33 686z" transform="translate(.33 -157.05)"/>
                  <path fill="url(#grad2)" d="M-.33 660.12v-4.7q240.65-60.12 472.51-133.79c102.88-32.92 197.82-65.21 309.31-83.42A2884.37 2884.37 0 0 1 1111.41 404c236.88-11 467.7 10.13 697 48.77 98.44 16.59 196.47 35.57 296.51 47.53 71.27 8.53 174.19 21.65 235-13.39v5.89c-61.51 33-163.83 18.34-233.83 9.51-99.84-12.61-197.73-31.63-296.21-48.1-228.6-38.22-459.39-58.33-695.31-48.12a3014 3014 0 0 0-330.15 32.3c-57.59 8.91-115.63 17.93-168.85 35.38Q545 496.93 474.13 519.66C318.26 569.55 161.22 618.84-.33 660.12z" transform="translate(.33 -157.05)"/>
                  <path fill="url(#grad2)" d="M-.33 633v-4.87c67.49-14.33 137.8-21.78 206.44-33.13 85.48-14.13 168.58-33.34 248.41-58.17C556.08 505.24 646.78 465.48 754 442c113.84-24.89 231.92-41.05 351.21-48.37 240.25-14.74 468.78 13.12 700.34 53.09 97.18 16.77 195.24 34.8 295.22 42.42 79.76 6.08 182.47 8.41 239.22-37v6.24c-57.33 43.65-160 39.34-238 32.79-99.82-8.37-197.66-26.56-294.86-43.32-230.71-39.77-459.18-66.58-698.42-52.75-119.15 6.9-237.21 22.3-351.32 46.19-107.75 22.54-199.1 61.13-300.63 92.9C308.9 580.48 153.38 599.3-.33 633z" transform="translate(.33 -157.05)"/>
                  <path fill="url(#grad2)" d="M-.33 604.94v-5c65.7-11.14 134.08-7.64 201.15-9.69 87.17-2.68 170.89-15.39 250.27-39.86 100.15-30.87 185.74-75.89 288.79-103.67C850.25 417 966.41 397 1084.57 387.28c118.87-9.75 239.45-9 358.2 1.2 124.23 10.7 243.91 34.34 365 54.89 151 25.64 424.33 82.13 532.27-27.58v6.47c-108.56 106.26-382.75 47.16-530.58 21.95-239.85-40.89-471.76-75.54-721.15-56-118 9.24-234.08 28.48-344.74 57.24-103.59 26.93-189.84 70.75-289.89 101.8-80.12 24.87-164.65 39-252.58 43.9-67.2 3.71-135.79 2.2-201.43 13.79z" transform="translate(.33 -157.05)"/>
                  <path fill="url(#grad2)" d="M-.33 576.43v-5c66.48-8.35 131.34 5.79 196.09 13.92 79.23 9.95 155.91 7.62 231.14-13 51.77-14.21 98.91-34.91 143.07-57.62 47.52-24.45 100.7-43.69 154.75-61 106.93-34.35 221.22-58.24 338.54-70.37 118.23-12.21 238.85-12.43 357.43-2.22 124.89 10.74 244.22 36.19 366 56.45 181 30.13 436.86 68.8 553.35-58.91v6.57c-117.05 124.62-374.29 82.64-551.57 53-121.35-20.32-240.5-45.32-365-56C1305.17 372 1185 372.1 1067 383.84 949.94 395.5 835.67 418.6 728.43 452c-54 16.83-107.48 35.43-155.08 59.43-44.66 22.51-92.12 43-143.94 57.43-75.48 21-153.06 25.1-233.42 17.3-65.05-6.31-130.37-18.51-196.32-9.73z" transform="translate(.33 -157.05)"/>
                  <path fill="url(#grad2)" d="M-.33 547.8v-5c74.86-6.26 139.89 22.37 205.62 41.21 71.57 20.53 143.1 26 216.71 6 51.66-14.08 95.28-37.11 137.4-61 46-26 97.55-47.92 150.14-67.55 103.42-38.59 215.75-66.26 332.31-80.78 127.27-15.85 258.1-15.85 386-3 122.51 12.36 239.21 39.9 359.51 58.66 200.6 31.27 441.7 46 552.69-95.09v6.54c-111.54 138.51-354.14 120-550.82 89-119.94-18.87-236.5-46-358.71-58.23-127.49-12.77-257.88-12.87-384.88 2.48-116.37 14.07-228.73 40.96-332.5 78.66-52.59 19.1-104.42 40.38-150.49 66-42.61 23.66-86.52 46.41-138.19 60.69-73.47 20.3-145.87 16.74-218.91-1.91C139.17 567.5 73.59 541.1-.33 547.8z" transform="translate(.33 -157.05)"/>
                  <path fill="url(#grad2)" d="M-.33 519.43v-4.94c153.79-7.1 232.57 132.64 396.92 98.85 48-9.87 89.88-31.2 126.46-53.48 45.94-28 91.57-54.6 143.11-78.06 103.84-47.26 219.72-82.51 342.37-101.43 123.83-19.1 252.34-21.28 378.07-9.86 131.72 12 255.33 43.56 384.47 62.88 98.4 14.72 202.7 24.87 303.09 13.19 125.82-14.64 212.65-65.9 265.84-142V311c-53.3 74.84-140.3 123.83-264.42 137.27-100.39 10.88-204.35.3-302.55-14.52-128.75-19.43-252.24-50.54-383.64-62.38-125.39-11.37-253.58-9.27-377.24 9.35-122.43 18.43-238.42 52.83-342.74 99.17C579.25 520 503.92 587.6 398.65 609.86c-163.13 34.48-246.33-98.4-398.98-90.43z" transform="translate(.33 -157.05)"/>
                  <path fill="url(#grad2)" d="M-.33 491.69v-4.79c162.59-2.57 218.75 177.89 390.78 144.78 46.8-9 86.49-32 120.05-54.51 50.16-33.7 99.68-66.23 157.06-94.65 99.77-49.43 212.7-86.79 333.61-106.66 122.22-20.1 249.63-21.93 373.89-9.72 130.27 12.79 251.54 46.23 379.58 64.91 103.88 15.16 215.2 23.34 319.51 5.27 131-22.7 214.4-86.07 265.85-167v6.07c-51.44 79.73-134.88 141-264.41 162.48-104.33 17.29-215.29 8.64-318.9-6.57-127.69-18.75-248.9-51.67-378.86-64.3-124.06-12.06-251.17-10.28-373.29 9.39-120.74 19.45-233.87 56-334.16 104.67-57.48 27.86-107.34 59.77-157.62 93-34 22.47-73.86 45.06-120.68 54.31C220.83 662.24 160.82 488.39-.33 491.69z" transform="translate(.33 -157.05)"/>
                  <path fill="url(#grad2)" d="M-.33 465v-4.56c96 .5 154.94 69.12 205.34 114 43 38.26 100 89.37 182 73.9 45.91-8.66 83.74-33.65 114.7-56.54 48-35.49 94.56-70.44 149.63-101.3 93.84-52.57 201.93-93.74 320-116.53 127.42-24.6 261.9-26.86 392.4-12.76 128.73 13.9 247.5 49.35 374.3 67.83 102.74 15 212.38 21.08 314.82 1.76 145.63-27.47 233.73-103.88 287.19-194.57v5.64c-53.42 89.6-141.5 163.78-285.65 190.18-102.36 18.74-211.81 12.18-314.23-2.77-126.49-18.47-245.26-53.36-373.72-67.05-130.45-13.93-264.73-11.65-392.13 12.54-118 22.4-226.39 62.86-320.84 114.73-55.22 30.32-102.16 64.7-150.29 99.75-31.31 22.81-69.3 47.36-115.18 56.18C212 679.26 169.81 465.33-.33 465z" transform="translate(.33 -157.05)"/>
                  <path fill="url(#grad2)" d="M-.33 439.61v-4.29c101.44 1.53 158.93 79.28 204.31 129 36.85 40.38 91.75 113.68 179.86 98.37C428.17 655 464 629 492.35 606.61c46.29-36.55 88.55-74.12 140.53-107.4A967.9 967.9 0 0 1 956 367.44c122.5-25.66 252.77-28.31 379-14.54 135.37 14.78 258 55.18 391.1 74.73 107.81 15.84 223.55 19.58 328.87-5.74 147.76-35.53 232.65-121.53 285.08-216V211c-52.66 94-138.34 178.54-286.21 212.58-99.86 23-208.74 20.19-311 6.37-132.27-17.89-254.21-57.87-387.53-73.72C1227.41 341 1095 342.1 969.86 366.52a987.29 987.29 0 0 0-328.93 128.17c-52.8 32.58-96.73 69.16-142.62 105.87-29.13 23.3-65.5 50.17-110.81 59.18-88.5 17.59-144.73-52.25-183.18-93C158.1 517.63 100.37 441-.33 439.61z" transform="translate(.33 -157.05)"/>
                  <path fill="url(#grad2)" d="M-.33 416v-3.93c108.38 1.42 166.25 88.52 208.79 142.7 31.33 39.9 82.4 129.28 170.76 119.22 51.4-5.85 91.76-41 120.75-66.74 43.36-38.52 83.63-77.55 133.53-112.63a868.09 868.09 0 0 1 309.9-137.08c128.64-28.78 266.68-28.91 398.68-10.71 131.54 18.13 250.06 61.41 380.8 80.43 108.4 15.77 224.55 16.67 328.46-12.06 151.95-42 236-136.74 288.66-235.9v4.38C2287.55 281.83 2203.64 375 2052.9 416c-103.8 28.29-219.61 27.14-327.72 11.58-130.54-18.79-249.24-61.37-380.62-79.1-132.24-17.85-270.3-17.46-399.16 11.06a885.31 885.31 0 0 0-311.61 135.78c-50.16 34.62-90.9 73.15-134.45 111.3-29.25 25.63-69.65 60-120.87 65.91-88.11 10.15-139.28-76.6-171.47-116.46C164 502.75 106.67 417.55-.33 416z" transform="translate(.33 -157.05)"/>
                  <path fill="url(#grad2)" d="M-.33 394.56V391c121.95 0 182.12 104 225.19 164.48 27.73 39 77.25 136.22 165.66 123.25 51.9-7.61 91.16-46.44 118.93-73.32 40.95-39.64 77.66-80.35 124.55-117.19a771.71 771.71 0 0 1 310.9-147.41c125.34-27.73 259.91-24.94 387.22-4.63 129.4 20.65 244.15 66.93 372.79 88 106.6 17.43 221.29 18.66 324.38-8.95 166.05-44.48 255.4-150.56 310.71-258.15v3.56c-55.08 106.69-144.24 211.27-309 255.05-102.91 27.33-217.25 26-323.66 9-128.51-20.63-243.55-66.13-372.84-86.28-127.75-19.91-262.53-22.26-388.18 5.33a788.93 788.93 0 0 0-313.2 146.39c-47.22 36.41-84.47 76.67-125.64 116-27.91 26.65-67.17 64.68-118.79 72.16C300.59 691 251 596 222.85 556.93 179.75 497.16 120 394.87-.33 394.56z" transform="translate(.33 -157.05)"/>
                </svg>